#!OML:ASF E:\VariousWalksJay\Project 1\Capture day 1\Session 1\Actor2.ASF
:FULLY-SPECIFIED
:DEGREES
940
root -4.49054 15.3781 30.9591 9.60902 -25.5639 -6.03018
lowerback 15.4132 -2.34571 6.89541
upperback 14.426 -2.70249 -1.15763
thorax 6.64484 -0.83442 -4.8567
lowerneck 7.54835 -0.817906 -2.54692
upperneck -13.9417 0.083502 11.127
head -5.43046 -0.640531 3.92415
rclavicle 2.3059e-014 -4.77083e-015
rhumerus -45.7559 27.6308 -88.9391
rradius 60.986
rwrist 3.96318
rhand -12.9227 -10.7076
rfingers 7.12502
rthumb 13.1677 -40.2718
lclavicle 2.3059e-014 -4.77083e-015
lhumerus 22.4734 -19.4827 58.0464
lradius 70.8382
lwrist 80.2128
lhand -35.8679 7.20128
lfingers 7.12502
lthumb -8.9823 36.9901
rfemur -24.3529 2.7878 31.7157
rtibia 66.8271
rfoot -32.9499 -14.7593
rtoes -22.1239
lfemur -39.2483 3.92659 -17.7161
ltibia -6.36111e-014
lfoot -16.3253 0.0257816
ltoes -25.5357
941
root -4.52148 15.3856 31.083 9.87595 -25.9017 -6.08556
lowerback 15.1636 -2.2308 6.86323
upperback 14.3414 -2.57091 -1.15822
thorax 6.69759 -0.770514 -4.85934
lowerneck 7.54189 -0.810697 -2.5321
upperneck -13.9665 0.0910647 11.0831
head -5.43767 -0.635115 3.90757
rclavicle 4.45278e-014 -1.27222e-014
rhumerus -45.7862 27.7408 -88.9012
rradius 61.0934
rwrist 3.93897
rhand -12.8784 -10.7305
rfingers 7.12502
rthumb 13.2104 -40.2919
lclavicle 4.45278e-014 -1.27222e-014
lhumerus 22.3133 -19.5586 57.998
lradius 70.9783
lwrist 80.1919
lhand -35.8286 7.22518
lfingers 7.12502
lthumb -8.94444 37.0156
rfemur -24.1583 2.70666 31.5396
rtibia 66.8407
rfoot -32.6638 -14.3629
rtoes -22.5414
lfemur -38.858 4.38894 -17.84
ltibia -8.90555e-014
lfoot -15.8201 -0.237871
ltoes -25.6487
942
root -4.5518 15.3937 31.2048 10.1386 -26.218 -6.09014
lowerback 14.8972 -2.12423 6.78804
upperback 14.262 -2.45431 -1.17388
thorax 6.76335 -0.716173 -4.85242
lowerneck 7.51447 -0.804016 -2.5011
upperneck -13.9909 0.100014 11.0414
head -5.44129 -0.629564 3.88861
rclavicle -7.31528e-014 3.02153e-014
rhumerus -45.7699 27.8086 -88.841
rradius 61.1855
rwrist 3.91403
rhand -12.8624 -10.7329
rfingers 7.12502
rthumb 13.2259 -40.2933
lclavicle -7.31528e-014 3.02153e-014
lhumerus 22.1803 -19.6171 57.9195
lradius 71.0942
lwrist 80.1868
lhand -35.812 7.22036
lfingers 7.12502
lthumb -8.9284 37.0114
rfemur -24.0052 2.593 31.3121
rtibia 66.8724
rfoot -32.373 -13.9754
rtoes -22.9293
lfemur -38.5921 4.81094 -18.0211
ltibia -2.22639e-014
lfoot -15.1983 -0.245098
ltoes -25.9871
943
root -4.58109 15.4033 31.3235 10.3767 -26.4902 -6.024
lowerback 14.6445 -2.03653 6.65747
upperback 14.1831 -2.36448 -1.20419
thorax 6.81873 -0.679352 -4.82633
lowerneck 7.46231 -0.797929 -2.46324
upperneck -14.0012 0.108275 11.0046
head -5.43621 -0.624035 3.86951
rclavicle -3.97569e-014 2.38542e-015
rhumerus -45.7195 27.8462 -88.7644
rradius 61.2638
rwrist 3.87127
rhand -12.8572 -10.7507
rfingers 7.12502
rthumb 13.2309 -40.3108
lclavicle -3.97569e-014 2.38542e-015
lhumerus 22.065 -19.6502 57.8264
lradius 71.1818
lwrist 80.1976
lhand -35.8075 7.23662
lfingers 7.12502
lthumb -8.92403 37.0279
rfemur -23.8829 2.43969 31.0192
rtibia 66.9136
rfoot -32.0839 -13.5978
rtoes -23.2472
lfemur -38.4464 5.1706 -18.2679
ltibia -3.81667e-014
lfoot -14.4369 -0.0388557
ltoes -26.3474
944
root -4.60932 15.4143 31.4376 10.5885 -26.6945 -5.89036
lowerback 14.4175 -1.97503 6.47677
upperback 14.1084 -2.30963 -1.24492
thorax 6.86024 -0.664008 -4.77869
lowerneck 7.39266 -0.78997 -2.43252
upperneck -14.013 0.121015 10.9891
head -5.4288 -0.617134 3.85803
rclavicle 5.08889e-014 5.56597e-015
rhumerus -45.627 27.8525 -88.6688
rradius 61.3257
rwrist 3.81761
rhand -12.8642 -10.7734
rfingers 7.12502
rthumb 13.2241 -40.334
lclavicle 5.08889e-014 5.56597e-015
lhumerus 21.9859 -19.652 57.7148
lradius 71.2337
lwrist 80.2222
lhand -35.8155 7.25438
lfingers 7.12502
lthumb -8.93175 37.0453
rfemur -23.7946 2.24404 30.6741
rtibia 66.959
rfoot -31.7957 -13.242
rtoes -23.4839
lfemur -38.4112 5.45044 -18.5661
ltibia -3.18055e-014
lfoot -13.5365 0.337959
ltoes -26.5335
945
root -4.63664 15.4267 31.5466 10.7566 -26.8099 -5.6967
lowerback 14.2463 -1.9466 6.25559
upperback 14.0435 -2.29637 -1.2922
thorax 6.87785 -0.673153 -4.70975
lowerneck 7.30453 -0.784169 -2.40183
upperneck -14.0291 0.133068 10.9899
head -5.41942 -0.611468 3.85169
rclavicle 7.15625e-015 1.66979e-014
rhumerus -45.4905 27.8241 -88.5583
rradius 61.3676
rwrist 3.76137
rhand -12.8947 -10.7878
rfingers 7.12502
rthumb 13.1947 -40.3502
lclavicle 7.15625e-015 1.66979e-014
lhumerus 21.9566 -19.6209 57.585
lradius 71.2447
lwrist 80.257
lhand -35.8255 7.29945
lfingers 7.12502
lthumb -8.94145 37.09
rfemur -23.7174 2.00015 30.2947
rtibia 67.0009
rfoot -31.5097 -12.9213
rtoes -23.6145
lfemur -40.2549 5.55138 -18.9903
ltibia 3.49695
lfoot -14.2274 0.843905
ltoes -26.5718
946
root -4.66362 15.4404 31.6505 10.8786 -26.8235 -5.47538
lowerback 14.1489 -1.95237 6.02723
upperback 13.9948 -2.32327 -1.33971
thorax 6.86969 -0.703593 -4.63143
lowerneck 7.21429 -0.782625 -2.38036
upperneck -14.068 0.14475 11.0267
head -5.41658 -0.608835 3.85895
rclavicle 5.1684e-014 -3.4191e-014
rhumerus -45.3142 27.7546 -88.4404
rradius 61.3888
rwrist 3.71064
rhand -12.9407 -10.7885
rfingers 7.12502
rthumb 13.1504 -40.3538
lclavicle 5.1684e-014 -3.4191e-014
lhumerus 21.9982 -19.5677 57.4294
lradius 71.2115
lwrist 80.2978
lhand -35.8373 7.33295
lfingers 7.12502
lthumb -8.95279 37.123
rfemur -23.6261 1.71717 29.9233
rtibia 67.0282
rfoot -31.2269 -12.663
rtoes -23.6442
lfemur -41.2903 5.62627 -19.336
ltibia 5.42223
lfoot -14.0886 1.45516
ltoes -26.457
947
root -4.69085 15.4545 31.7496 10.9644 -26.7383 -5.26069
lowerback 14.1364 -1.98604 5.81721
upperback 13.9616 -2.38028 -1.37849
thorax 6.83071 -0.748832 -4.54906
lowerneck 7.12348 -0.791051 -2.3565
upperneck -14.1266 0.148292 11.091
head -5.41913 -0.612995 3.87557
rclavicle 3.73715e-014 -2.22639e-014
rhumerus -45.1157 27.6398 -88.3218
rradius 61.3983
rwrist 3.67731
rhand -12.9971 -10.7823
rfingers 7.12502
rthumb 13.096 -40.3511
lclavicle 3.73715e-014 -2.22639e-014
lhumerus 22.1191 -19.5039 57.2538
lradius 71.1333
lwrist 80.3315
lhand -35.8459 7.40248
lfingers 7.12502
lthumb -8.96109 37.1922
rfemur -23.5052 1.41334 29.5996
rtibia 67.0287
rfoot -30.9444 -12.4875
rtoes -23.5731
lfemur -42.1359 5.64311 -19.6184
ltibia 7.04798
lfoot -13.8015 2.08173
ltoes -26.0883
948
root -4.71891 15.4683 31.8451 11.0369 -26.5648 -5.09315
lowerback 14.1898 -2.04002 5.6629
upperback 13.944 -2.45644 -1.40156
thorax 6.77256 -0.800179 -4.47763
lowerneck 7.05007 -0.809733 -2.33225
upperneck -14.2114 0.144084 11.1844
head -5.43219 -0.624449 3.90275
rclavicle 6.12257e-014 -7.07673e-014
rhumerus -44.9096 27.4785 -88.2087
rradius 61.4022
rwrist 3.67521
rhand -13.0609 -10.754
rfingers 7.12502
rthumb 13.0345 -40.3267
lclavicle 6.12257e-014 -7.07673e-014
lhumerus 22.3232 -19.4392 57.0656
lradius 71.0118
lwrist 80.3476
lhand -35.8593 7.44204
lfingers 7.12502
lthumb -8.97405 37.2312
rfemur -23.3445 1.10861 29.3652
rtibia 66.9855
rfoot -30.6668 -12.4053
rtoes -23.4009
lfemur -42.8593 5.6059 -19.8176
ltibia 8.54531
lfoot -13.5199 2.67884
ltoes -25.5933
949
root -4.74796 15.4822 31.9377 11.1181 -26.3288 -5.0139
lowerback 14.2962 -2.10409 5.59531
upperback 13.9422 -2.53717 -1.40248
thorax 6.70408 -0.847909 -4.42928
lowerneck 6.99284 -0.838348 -2.30361
upperneck -14.3145 0.131636 11.3003
head -5.45315 -0.642925 3.93757
rclavicle -5.00937e-014 6.36111e-015
rhumerus -44.6961 27.2911 -88.1114
rradius 61.3924
rwrist 3.70153
rhand -13.1119 -10.7275
rfingers 7.12502
rthumb 12.9854 -40.3034
lclavicle -5.00937e-014 6.36111e-015
lhumerus 22.6053 -19.3716 56.8781
lradius 70.8526
lwrist 80.3372
lhand -35.8649 7.50165
lfingers 7.12502
lthumb -8.97948 37.2906
rfemur -23.1336 0.828442 29.2611
rtibia 66.8801
rfoot -30.3869 -12.4498
rtoes -23.2028
lfemur -43.4853 5.53512 -19.9138
ltibia 9.9494
lfoot -13.2448 3.23108
ltoes -25.162
950
root -4.77754 15.4967 32.029 11.2288 -26.0529 -5.03353
lowerback 14.4233 -2.17329 5.6283
upperback 13.9497 -2.61615 -1.38178
thorax 6.63548 -0.887442 -4.41375
lowerneck 6.95612 -0.874307 -2.2668
upperneck -14.4232 0.111789 11.422
head -5.47894 -0.666707 3.97376
rclavicle 2.38542e-014 -3.18055e-014
rhumerus -44.4946 27.1016 -88.0359
rradius 61.3855
rwrist 3.75232
rhand -13.1457 -10.6969
rfingers 7.12502
rthumb 12.9527 -40.2749
lclavicle 2.38542e-014 -3.18055e-014
lhumerus 22.939 -19.2986 56.7123
lradius 70.6686
lwrist 80.3001
lhand -35.8819 7.53258
lfingers 7.12502
lthumb -8.99587 37.3208
rfemur -22.8726 0.582198 29.2904
rtibia 66.6969
rfoot -30.1134 -12.6111
rtoes -22.9809
lfemur -44.0513 5.44534 -19.9118
ltibia 11.2703
lfoot -12.9817 3.66418
ltoes -24.8463
951
root -4.80717 15.5118 32.119 11.3861 -25.7753 -5.15186
lowerback 14.5523 -2.23619 5.74642
upperback 13.9583 -2.68021 -1.33964
thorax 6.56874 -0.913634 -4.42421
lowerneck 6.9353 -0.912746 -2.2263
upperneck -14.5197 0.0882148 11.5424
head -5.50347 -0.692481 4.00912
rclavicle -5.56597e-014 5.32743e-014
rhumerus -44.3091 26.9466 -87.9868
rradius 61.3826
rwrist 3.81226
rhand -13.1495 -10.6918
rfingers 7.12502
rthumb 12.9491 -40.27
lclavicle -5.56597e-014 5.32743e-014
lhumerus 23.2954 -19.2167 56.5814
lradius 70.4748
lwrist 80.2445
lhand -35.9068 7.56591
lfingers 7.12502
lthumb -9.01985 37.3531
rfemur -22.5807 0.390457 29.4493
rtibia 66.4313
rfoot -29.8414 -12.894
rtoes -22.7566
lfemur -44.6064 5.59928 -20.0535
ltibia 12.5039
lfoot -12.705 3.61231
ltoes -24.6301
952
root -4.83608 15.5278 32.2085 11.5925 -25.5249 -5.34872
lowerback 14.6625 -2.28975 5.92945
upperback 13.9626 -2.72776 -1.28236
thorax 6.50903 -0.926989 -4.45689
lowerneck 6.92262 -0.947128 -2.1874
upperneck -14.5856 0.0656755 11.6476
head -5.52006 -0.715712 4.03925
rclavicle 1.11319e-014 -3.73715e-014
rhumerus -44.137 26.8535 -87.958
rradius 61.3775
rwrist 3.88323
rhand -13.1367 -10.6728
rfingers 7.12502
rthumb 12.9614 -40.2502
lclavicle 1.11319e-014 -3.73715e-014
lhumerus 23.6355 -19.1154 56.5026
lradius 70.2889
lwrist 80.1738
lhand -35.9433 7.57228
lfingers 7.12502
lthumb -9.05505 37.3579
rfemur -22.2655 0.25249 29.7071
rtibia 66.086
rfoot -29.5808 -13.2748
rtoes -22.5173
lfemur -45.1135 5.67975 -20.0437
ltibia 13.6311
lfoot -12.4313 3.50846
ltoes -24.5088
953
root -4.86335 15.5452 32.2982 11.8301 -25.329 -5.57361
lowerback 14.7454 -2.33054 6.13018
upperback 13.959 -2.75846 -1.22224
thorax 6.45688 -0.930653 -4.49877
lowerneck 6.90458 -0.973762 -2.15619
upperneck -14.6009 0.0451232 11.728
head -5.52019 -0.733718 4.06132
rclavicle 2.06736e-014 2.70347e-014
rhumerus -43.9834 26.8488 -87.9479
rradius 61.3771
rwrist 3.94119
rhand -13.0974 -10.6722
rfingers 7.12502
rthumb 12.9993 -40.2472
lclavicle 2.06736e-014 2.70347e-014
lhumerus 23.9277 -18.9941 56.4811
lradius 70.1274
lwrist 80.1014
lhand -35.9853 7.55914
lfingers 7.12502
lthumb -9.09566 37.343
rfemur -21.9341 0.15734 30.0001
rtibia 65.6739
rfoot -29.3377 -13.7272
rtoes -22.2454
lfemur -45.5645 5.70708 -19.9438
ltibia 14.6463
lfoot -12.1663 3.37632
ltoes -24.359
